<svg width="273" height="36" viewBox="0 0 273 36" fill="none" xmlns="http://www.w3.org/2000/svg">
<path d="M13.4805 1.40625H18.9824V19.0723C18.9824 20.7832 18.6016 22.2598 17.8398 23.502C17.0898 24.7324 16.0586 25.6816 14.7461 26.3496C13.4453 27.0176 11.9805 27.3516 10.3516 27.3516C8.67578 27.3516 7.18164 27.0703 5.86914 26.5078C4.56836 25.9336 3.54297 25.0605 2.79297 23.8887C2.05469 22.7051 1.68555 21.2051 1.68555 19.3887H7.24023C7.24023 20.7246 7.51562 21.6445 8.06641 22.1484C8.62891 22.6523 9.39062 22.9043 10.3516 22.9043C11.3125 22.9043 12.0742 22.5703 12.6367 21.9023C13.1992 21.2344 13.4805 20.291 13.4805 19.0723V1.40625ZM22.252 17.3145C22.252 15.4629 22.6035 13.8105 23.3066 12.3574C24.0098 10.8926 25.0352 9.73828 26.3828 8.89453C27.7305 8.05078 29.3652 7.62891 31.2871 7.62891C33.2324 7.62891 34.8789 8.05078 36.2266 8.89453C37.5859 9.73828 38.6113 10.8926 39.3027 12.3574C40.0059 13.8105 40.3574 15.4629 40.3574 17.3145V17.6836C40.3574 19.5234 40.0059 21.1758 39.3027 22.6406C38.6113 24.0938 37.5918 25.2422 36.2441 26.0859C34.8965 26.9297 33.2559 27.3516 31.3223 27.3516C29.3887 27.3516 27.7422 26.9297 26.3828 26.0859C25.0352 25.2422 24.0098 24.0938 23.3066 22.6406C22.6035 21.1758 22.252 19.5234 22.252 17.6836V17.3145ZM27.5781 17.6836C27.5781 18.6797 27.6953 19.5879 27.9297 20.4082C28.1641 21.2285 28.5566 21.8789 29.1074 22.3594C29.6582 22.8398 30.3965 23.0801 31.3223 23.0801C32.6934 23.0801 33.6543 22.5586 34.2051 21.5156C34.7676 20.4609 35.0488 19.1836 35.0488 17.6836V17.3145C35.0488 16.3418 34.9258 15.4453 34.6797 14.625C34.4453 13.8047 34.0527 13.1484 33.502 12.6562C32.9629 12.1523 32.2246 11.9004 31.2871 11.9004C30.373 11.9004 29.6465 12.1523 29.1074 12.6562C28.5684 13.1484 28.1758 13.8047 27.9297 14.625C27.6953 15.4453 27.5781 16.3418 27.5781 17.3145V17.6836ZM54.5605 7.98047H59.8691V27H54.8945L54.7539 25.0488C54.168 25.7754 53.4414 26.3438 52.5742 26.7539C51.7188 27.1523 50.7227 27.3516 49.5859 27.3516C47.7109 27.3516 46.1875 26.8008 45.0156 25.6992C43.8555 24.5977 43.2754 22.793 43.2754 20.2852V7.98047H48.584V20.3203C48.584 21.293 48.8242 21.9902 49.3047 22.4121C49.7852 22.834 50.4062 23.0449 51.168 23.0449C52.0469 23.0449 52.7559 22.8926 53.2949 22.5879C53.8457 22.2832 54.2676 21.873 54.5605 21.3574V7.98047ZM68.9219 27H63.6133V7.98047H68.6055L68.7812 10.248C69.2383 9.42773 69.8184 8.78906 70.5215 8.33203C71.2246 7.86328 72.0391 7.62891 72.9648 7.62891C73.2344 7.62891 73.5156 7.65234 73.8086 7.69922C74.1133 7.73438 74.3594 7.78711 74.5469 7.85742L74.4766 12.9727C74.2188 12.9375 73.9082 12.9082 73.5449 12.8848C73.1934 12.8496 72.8828 12.832 72.6133 12.832C70.7266 12.832 69.4961 13.4473 68.9219 14.6777V27ZM82.0527 27H76.7441V7.98047H81.7363L81.9121 10.1426C83.2598 8.4668 85.0703 7.62891 87.3438 7.62891C88.5391 7.62891 89.5879 7.86328 90.4902 8.33203C91.3926 8.78906 92.0957 9.55078 92.5996 10.6172C93.1035 11.6836 93.3555 13.125 93.3555 14.9414V27H88.0293V14.9062C88.0293 13.7344 87.7773 12.9492 87.2734 12.5508C86.7695 12.1406 86.043 11.9355 85.0938 11.9355C84.3906 11.9355 83.7871 12.082 83.2832 12.375C82.7793 12.668 82.3691 13.0723 82.0527 13.5879V27ZM105.959 27.3516C103.955 27.3516 102.238 26.9355 100.809 26.1035C99.3906 25.2715 98.3008 24.1582 97.5391 22.7637C96.7891 21.3691 96.4141 19.8281 96.4141 18.1406V17.4551C96.4141 15.5566 96.7715 13.8691 97.4863 12.3926C98.2129 10.916 99.2441 9.75586 100.58 8.91211C101.916 8.05664 103.51 7.62891 105.361 7.62891C108.115 7.62891 110.213 8.48438 111.654 10.1953C113.096 11.8945 113.816 14.1562 113.816 16.9805V19.2305H101.811C101.998 20.3906 102.479 21.3223 103.252 22.0254C104.037 22.7168 105.051 23.0625 106.293 23.0625C107.195 23.0625 108.033 22.8984 108.807 22.5703C109.592 22.2305 110.266 21.7031 110.828 20.9883L113.395 23.9238C112.797 24.7793 111.871 25.5645 110.617 26.2793C109.363 26.9941 107.811 27.3516 105.959 27.3516ZM105.326 11.9004C104.283 11.9004 103.486 12.252 102.936 12.9551C102.385 13.6465 102.021 14.5488 101.846 15.6621H108.596V15.2402C108.584 14.2676 108.314 13.4707 107.787 12.8496C107.271 12.2168 106.451 11.9004 105.326 11.9004ZM127.193 7.98047H132.871L125.277 29.8477C125.055 30.4805 124.721 31.1719 124.275 31.9219C123.842 32.6836 123.215 33.334 122.395 33.873C121.586 34.4121 120.502 34.6816 119.143 34.6816C118.65 34.6816 118.252 34.6523 117.947 34.5938C117.643 34.5469 117.273 34.4648 116.84 34.3477V30.3398C117.086 30.3516 117.344 30.3574 117.613 30.3574C118.598 30.3574 119.318 30.1992 119.775 29.8828C120.244 29.5781 120.596 29.0977 120.83 28.4414L121.357 27.0703L114.713 7.98047H120.426L123.801 19.4414L127.193 7.98047ZM155.125 27H149.605V5.87109H141.941V1.40625H162.895V5.87109H155.125V27ZM162.596 17.3145C162.596 15.4629 162.947 13.8105 163.65 12.3574C164.354 10.8926 165.379 9.73828 166.727 8.89453C168.074 8.05078 169.709 7.62891 171.631 7.62891C173.576 7.62891 175.223 8.05078 176.57 8.89453C177.93 9.73828 178.955 10.8926 179.646 12.3574C180.35 13.8105 180.701 15.4629 180.701 17.3145V17.6836C180.701 19.5234 180.35 21.1758 179.646 22.6406C178.955 24.0938 177.936 25.2422 176.588 26.0859C175.24 26.9297 173.6 27.3516 171.666 27.3516C169.732 27.3516 168.086 26.9297 166.727 26.0859C165.379 25.2422 164.354 24.0938 163.65 22.6406C162.947 21.1758 162.596 19.5234 162.596 17.6836V17.3145ZM167.922 17.6836C167.922 18.6797 168.039 19.5879 168.273 20.4082C168.508 21.2285 168.9 21.8789 169.451 22.3594C170.002 22.8398 170.74 23.0801 171.666 23.0801C173.037 23.0801 173.998 22.5586 174.549 21.5156C175.111 20.4609 175.393 19.1836 175.393 17.6836V17.3145C175.393 16.3418 175.27 15.4453 175.023 14.625C174.789 13.8047 174.396 13.1484 173.846 12.6562C173.307 12.1523 172.568 11.9004 171.631 11.9004C170.717 11.9004 169.99 12.1523 169.451 12.6562C168.912 13.1484 168.52 13.8047 168.273 14.625C168.039 15.4453 167.922 16.3418 167.922 17.3145V17.6836ZM200.23 1.40625L206.576 19.6699L212.904 1.40625H220.129V27H214.592V20.373L215.137 8.22656L208.439 27H204.678L197.998 8.22656L198.543 20.373V27H193.006V1.40625H200.23ZM234.455 14.3262C234.455 13.4707 234.244 12.791 233.822 12.2871C233.4 11.7832 232.727 11.5312 231.801 11.5312C230.992 11.5312 230.365 11.7246 229.92 12.1113C229.475 12.498 229.252 13.0371 229.252 13.7285H223.943C223.943 12.6035 224.277 11.584 224.945 10.6699C225.613 9.74414 226.557 9.00586 227.775 8.45508C228.994 7.9043 230.43 7.62891 232.082 7.62891C233.559 7.62891 234.877 7.88086 236.037 8.38477C237.197 8.87695 238.111 9.62109 238.779 10.6172C239.447 11.6133 239.781 12.8613 239.781 14.3613V22.3066C239.781 23.4316 239.846 24.3223 239.975 24.9785C240.115 25.6348 240.309 26.209 240.555 26.7012V27H235.211C235 26.5547 234.83 25.998 234.701 25.3301C234.209 25.8926 233.576 26.373 232.803 26.7715C232.041 27.1582 231.098 27.3516 229.973 27.3516C228.766 27.3516 227.67 27.1113 226.686 26.6309C225.713 26.1387 224.939 25.4648 224.365 24.6094C223.791 23.7422 223.504 22.752 223.504 21.6387C223.504 19.6465 224.242 18.1055 225.719 17.0156C227.195 15.9141 229.393 15.3633 232.311 15.3633H234.455V14.3262ZM231.15 23.3262C231.971 23.3262 232.662 23.1504 233.225 22.7988C233.799 22.4355 234.209 22.0371 234.455 21.6035V18.4219H232.469C231.18 18.4219 230.248 18.7031 229.674 19.2656C229.1 19.8164 228.812 20.4844 228.812 21.2695C228.812 21.8672 229.023 22.3594 229.445 22.7461C229.867 23.1328 230.436 23.3262 231.15 23.3262ZM248.887 27H243.578V7.98047H248.57L248.746 10.248C249.203 9.42773 249.783 8.78906 250.486 8.33203C251.189 7.86328 252.004 7.62891 252.93 7.62891C253.199 7.62891 253.48 7.65234 253.773 7.69922C254.078 7.73438 254.324 7.78711 254.512 7.85742L254.441 12.9727C254.184 12.9375 253.873 12.9082 253.51 12.8848C253.158 12.8496 252.848 12.832 252.578 12.832C250.691 12.832 249.461 13.4473 248.887 14.6777V27ZM267.027 21.6914C267.027 21.1758 266.775 20.748 266.271 20.4082C265.779 20.0566 264.754 19.7168 263.195 19.3887C261.906 19.1191 260.752 18.7441 259.732 18.2637C258.725 17.7715 257.922 17.1445 257.324 16.3828C256.738 15.6211 256.445 14.6895 256.445 13.5879C256.445 12.5215 256.75 11.5371 257.359 10.6348C257.969 9.73242 258.842 9.00586 259.979 8.45508C261.127 7.9043 262.498 7.62891 264.092 7.62891C266.588 7.62891 268.551 8.20898 269.98 9.36914C271.422 10.5176 272.143 11.9883 272.143 13.7812H266.834C266.834 13.0664 266.611 12.4863 266.166 12.041C265.732 11.584 265.035 11.3555 264.074 11.3555C263.289 11.3555 262.668 11.543 262.211 11.918C261.754 12.293 261.525 12.7617 261.525 13.3242C261.525 13.8633 261.777 14.3027 262.281 14.6426C262.797 14.9707 263.693 15.252 264.971 15.4863C266.318 15.7559 267.537 16.1133 268.627 16.5586C269.717 16.9922 270.584 17.6074 271.229 18.4043C271.873 19.1895 272.195 20.2207 272.195 21.498C272.195 22.623 271.861 23.625 271.193 24.5039C270.537 25.3828 269.6 26.0801 268.381 26.5957C267.174 27.0996 265.75 27.3516 264.109 27.3516C262.316 27.3516 260.805 27.0293 259.574 26.3848C258.344 25.7402 257.412 24.9258 256.779 23.9414C256.146 22.9453 255.83 21.9316 255.83 20.9004H260.857C260.904 21.8496 261.25 22.541 261.895 22.9746C262.551 23.3965 263.33 23.6074 264.232 23.6074C265.146 23.6074 265.838 23.4316 266.307 23.0801C266.787 22.7285 267.027 22.2656 267.027 21.6914Z" fill="white"/>
<path d="M13.4805 1.40625V0.60625H12.6805V1.40625H13.4805ZM18.9824 1.40625H19.7824V0.60625H18.9824V1.40625ZM17.8398 23.502L17.1579 23.0838L17.1567 23.0856L17.8398 23.502ZM14.7461 26.3496L14.3832 25.6366L14.3806 25.638L14.7461 26.3496ZM5.86914 26.5078L5.54605 27.2397L5.55401 27.2431L5.86914 26.5078ZM2.79297 23.8887L2.11415 24.3121L2.11915 24.3199L2.79297 23.8887ZM1.68555 19.3887V18.5887H0.885547V19.3887H1.68555ZM7.24023 19.3887H8.04023V18.5887H7.24023V19.3887ZM8.06641 22.1484L7.52637 22.7387L7.53261 22.7443L8.06641 22.1484ZM13.4805 2.20625H18.9824V0.60625H13.4805V2.20625ZM18.1824 1.40625V19.0723H19.7824V1.40625H18.1824ZM18.1824 19.0723C18.1824 20.6616 17.8298 21.9879 17.1579 23.0838L18.5218 23.9202C19.3733 22.5316 19.7824 20.9048 19.7824 19.0723H18.1824ZM17.1567 23.0856C16.4857 24.1865 15.5666 25.0344 14.3832 25.6366L15.1089 27.0626C16.5506 26.3289 17.694 25.2783 18.523 23.9183L17.1567 23.0856ZM14.3806 25.638C13.2053 26.2415 11.8681 26.5516 10.3516 26.5516V28.1516C12.0929 28.1516 13.6853 27.7936 15.1115 27.0613L14.3806 25.638ZM10.3516 26.5516C8.76557 26.5516 7.38145 26.2856 6.18428 25.7725L5.55401 27.2431C6.98183 27.8551 8.586 28.1516 10.3516 28.1516V26.5516ZM6.19222 25.7759C5.03201 25.2638 4.13002 24.4937 3.46679 23.4574L2.11915 24.3199C2.95592 25.6274 4.10471 26.6034 5.54607 27.2397L6.19222 25.7759ZM3.47174 23.4653C2.83329 22.4417 2.48555 21.0998 2.48555 19.3887H0.885547C0.885547 21.3104 1.27609 22.9684 2.11419 24.3121L3.47174 23.4653ZM1.68555 20.1887H7.24023V18.5887H1.68555V20.1887ZM6.44023 19.3887C6.44023 20.7846 6.71857 21.9996 7.5264 22.7387L8.60642 21.5582C8.31268 21.2895 8.04023 20.6646 8.04023 19.3887H6.44023ZM7.53261 22.7443C8.27846 23.4125 9.24906 23.7043 10.3516 23.7043V22.1043C9.53219 22.1043 8.97935 21.8922 8.6002 21.5526L7.53261 22.7443ZM10.3516 23.7043C11.5217 23.7043 12.5177 23.2857 13.2486 22.4177L12.0248 21.387C11.6307 21.855 11.1033 22.1043 10.3516 22.1043V23.7043ZM13.2486 22.4177C13.973 21.5575 14.2805 20.4056 14.2805 19.0723H12.6805C12.6805 20.1764 12.4255 20.9112 12.0248 21.387L13.2486 22.4177ZM14.2805 19.0723V1.40625H12.6805V19.0723H14.2805ZM23.3066 12.3574L24.0268 12.7059L24.0279 12.7036L23.3066 12.3574ZM36.2266 8.89453L35.802 9.5726L35.8047 9.57424L36.2266 8.89453ZM39.3027 12.3574L38.5792 12.6989L38.5826 12.7059L39.3027 12.3574ZM39.3027 22.6406L38.5815 22.2944L38.5803 22.2969L39.3027 22.6406ZM26.3828 26.0859L25.9583 26.764L25.9609 26.7656L26.3828 26.0859ZM23.3066 22.6406L22.5854 22.9868L22.5865 22.9891L23.3066 22.6406ZM34.2051 21.5156L33.4992 21.1392L33.4977 21.142L34.2051 21.5156ZM34.6797 14.625L33.9104 14.8448L33.9134 14.8549L34.6797 14.625ZM33.502 12.6562L32.9556 13.2407L32.9622 13.2468L32.9689 13.2528L33.502 12.6562ZM29.1074 12.6562L29.6469 13.2471L29.6537 13.2407L29.1074 12.6562ZM27.9297 14.625L27.1634 14.3951L27.1605 14.4052L27.9297 14.625ZM23.052 17.3145C23.052 15.5658 23.3834 14.0354 24.0268 12.7059L22.5865 12.009C21.8236 13.5857 21.452 15.36 21.452 17.3145H23.052ZM24.0279 12.7036C24.667 11.3721 25.5909 10.3342 26.8073 9.5726L25.9583 8.21646C24.4794 9.14238 23.3525 10.4131 22.5854 12.0112L24.0279 12.7036ZM26.8073 9.5726C28.0034 8.82375 29.4838 8.42891 31.2871 8.42891V6.82891C29.2466 6.82891 27.4575 7.27781 25.9583 8.21646L26.8073 9.5726ZM31.2871 8.42891C33.1159 8.42891 34.6074 8.82467 35.802 9.5726L36.6511 8.21646C35.1504 7.2769 33.3489 6.82891 31.2871 6.82891V8.42891ZM35.8047 9.57424C37.0313 10.3356 37.9528 11.3717 38.5793 12.6989L40.0262 12.0159C39.2698 10.4135 38.1406 9.14096 36.6485 8.21482L35.8047 9.57424ZM38.5826 12.7059C39.2259 14.0354 39.5574 15.5658 39.5574 17.3145H41.1574C41.1574 15.36 40.7858 13.5857 40.0229 12.009L38.5826 12.7059ZM39.5574 17.3145V17.6836H41.1574V17.3145H39.5574ZM39.5574 17.6836C39.5574 19.4195 39.2263 20.9511 38.5815 22.2944L40.024 22.9868C40.7854 21.4004 41.1574 19.6274 41.1574 17.6836H39.5574ZM38.5803 22.2969C37.9535 23.6143 37.0365 24.646 35.8196 25.4079L36.6687 26.764C38.1471 25.8384 39.2691 24.5732 40.0251 22.9843L38.5803 22.2969ZM35.8196 25.4079C34.6243 26.1563 33.1383 26.5516 31.3223 26.5516V28.1516C33.3734 28.1516 35.1687 27.7031 36.6687 26.764L35.8196 25.4079ZM31.3223 26.5516C29.5065 26.5516 28.0132 26.1564 26.8047 25.4062L25.9609 26.7656C27.4711 27.703 29.2708 28.1516 31.3223 28.1516V26.5516ZM26.8073 25.4079C25.5893 24.6453 24.6654 23.612 24.0268 22.2922L22.5865 22.9891C23.3541 24.5755 24.481 25.8391 25.9583 26.764L26.8073 25.4079ZM24.0279 22.2944C23.3831 20.9511 23.052 19.4195 23.052 17.6836H21.452C21.452 19.6274 21.824 21.4004 22.5854 22.9868L24.0279 22.2944ZM23.052 17.6836V17.3145H21.452V17.6836H23.052ZM26.7781 17.6836C26.7781 18.7419 26.9026 19.7254 27.1605 20.628L28.6989 20.1884C28.488 19.4504 28.3781 18.6175 28.3781 17.6836H26.7781ZM27.1605 20.628C27.43 21.5714 27.896 22.3642 28.5815 22.9622L29.6333 21.7565C29.2173 21.3936 28.8981 20.8856 28.6989 20.1884L27.1605 20.628ZM28.5815 22.9622C29.3136 23.6009 30.2563 23.8801 31.3223 23.8801V22.2801C30.5367 22.2801 30.0028 22.0788 29.6333 21.7565L28.5815 22.9622ZM31.3223 23.8801C32.9315 23.8801 34.1979 23.2424 34.9125 21.8892L33.4977 21.142C33.1107 21.8748 32.4552 22.2801 31.3223 22.2801V23.8801ZM34.911 21.8921C35.549 20.6957 35.8488 19.2821 35.8488 17.6836H34.2488C34.2488 19.0851 33.9861 20.2262 33.4992 21.1392L34.911 21.8921ZM35.8488 17.6836V17.3145H34.2488V17.6836H35.8488ZM35.8488 17.3145C35.8488 16.2743 35.7172 15.2993 35.4459 14.3951L33.9134 14.8549C34.1344 15.5913 34.2488 16.4093 34.2488 17.3145H35.8488ZM35.4489 14.4052C35.1796 13.4625 34.7151 12.6675 34.035 12.0597L32.9689 13.2528C33.3903 13.6294 33.7111 14.1468 33.9105 14.8448L35.4489 14.4052ZM34.0483 12.0718C33.324 11.3948 32.3704 11.1004 31.2871 11.1004V12.7004C32.0788 12.7004 32.6018 12.9099 32.9556 13.2407L34.0483 12.0718ZM31.2871 11.1004C30.221 11.1004 29.2817 11.3982 28.5611 12.0718L29.6537 13.2407C30.0113 12.9065 30.5251 12.7004 31.2871 12.7004V11.1004ZM28.568 12.0655C27.9048 12.671 27.4438 13.4605 27.1634 14.3951L28.6959 14.8549C28.9077 14.1489 29.2319 13.6259 29.6468 13.247L28.568 12.0655ZM27.1605 14.4052C26.903 15.3062 26.7781 16.2777 26.7781 17.3145H28.3781C28.3781 16.4059 28.4876 15.5844 28.6989 14.8448L27.1605 14.4052ZM26.7781 17.3145V17.6836H28.3781V17.3145H26.7781ZM54.5605 7.98047V7.18047H53.7605V7.98047H54.5605ZM59.8691 7.98047H60.6691V7.18047H59.8691V7.98047ZM59.8691 27V27.8H60.6691V27H59.8691ZM54.8945 27L54.0966 27.0575L54.1501 27.8H54.8945V27ZM54.7539 25.0488L55.5518 24.9913L55.4059 22.966L54.1312 24.5466L54.7539 25.0488ZM52.5742 26.7539L52.912 27.4791L52.9163 27.4771L52.5742 26.7539ZM45.0156 25.6992L44.4648 26.2794L44.4677 26.2821L45.0156 25.6992ZM43.2754 7.98047V7.18047H42.4754V7.98047H43.2754ZM48.584 7.98047H49.384V7.18047H48.584V7.98047ZM53.2949 22.5879L52.9077 21.8878L52.9013 21.8914L53.2949 22.5879ZM54.5605 21.3574L55.2561 21.7526L55.3605 21.5688V21.3574H54.5605ZM54.5605 8.78047H59.8691V7.18047H54.5605V8.78047ZM59.0691 7.98047V27H60.6691V7.98047H59.0691ZM59.8691 26.2H54.8945V27.8H59.8691V26.2ZM55.6925 26.9425L55.5518 24.9913L53.956 25.1063L54.0966 27.0575L55.6925 26.9425ZM54.1312 24.5466C53.6231 25.1767 52.9935 25.6706 52.2322 26.0307L52.9163 27.4771C53.8894 27.0169 54.7129 26.3741 55.3766 25.551L54.1312 24.5466ZM52.2365 26.0287C51.5062 26.3688 50.6294 26.5516 49.5859 26.5516V28.1516C50.8159 28.1516 51.9313 27.9358 52.912 27.4791L52.2365 26.0287ZM49.5859 26.5516C47.8784 26.5516 46.5627 26.0555 45.5636 25.1163L44.4677 26.2821C45.8123 27.5461 47.5434 28.1516 49.5859 28.1516V26.5516ZM45.5665 25.1191C44.6362 24.2358 44.0754 22.6954 44.0754 20.2852H42.4754C42.4754 22.8905 43.0748 24.9595 44.4648 26.2794L45.5665 25.1191ZM44.0754 20.2852V7.98047H42.4754V20.2852H44.0754ZM43.2754 8.78047H48.584V7.18047H43.2754V8.78047ZM47.784 7.98047V20.3203H49.384V7.98047H47.784ZM47.784 20.3203C47.784 21.4028 48.0499 22.3749 48.7768 23.0133L49.8325 21.811C49.5986 21.6055 49.384 21.1831 49.384 20.3203H47.784ZM48.7768 23.0133C49.4302 23.5869 50.2511 23.8449 51.168 23.8449V22.2449C50.5614 22.2449 50.1401 22.081 49.8325 21.811L48.7768 23.0133ZM51.168 23.8449C52.1302 23.8449 52.9895 23.6795 53.6886 23.2843L52.9013 21.8914C52.5223 22.1057 51.9635 22.2449 51.168 22.2449V23.8449ZM53.6822 23.2879C54.3536 22.9165 54.8859 22.4043 55.2561 21.7526L53.865 20.9622C53.6493 21.3418 53.3378 21.6499 52.9077 21.8879L53.6822 23.2879ZM55.3605 21.3574V7.98047H53.7605V21.3574H55.3605ZM68.9219 27V27.8H69.7219V27H68.9219ZM63.6133 27H62.8133V27.8H63.6133V27ZM63.6133 7.98047V7.18047H62.8133V7.98047H63.6133ZM68.6055 7.98047L69.4031 7.91864L69.3459 7.18047H68.6055V7.98047ZM68.7812 10.248L67.9836 10.3099L68.1887 12.9553L69.4801 10.6374L68.7812 10.248ZM70.5215 8.33203L70.9575 9.00283L70.9652 8.99767L70.5215 8.33203ZM73.8086 7.69922L73.6822 8.48917L73.6995 8.49194L73.7169 8.49395L73.8086 7.69922ZM74.5469 7.85742L75.3468 7.86842L75.3545 7.30589L74.8278 7.10836L74.5469 7.85742ZM74.4766 12.9727L74.3685 13.7653L75.2641 13.8874L75.2765 12.9837L74.4766 12.9727ZM73.5449 12.8848L73.4653 13.6808L73.4793 13.6822L73.4934 13.6831L73.5449 12.8848ZM68.9219 14.6777L68.1969 14.3394L68.1219 14.5003V14.6777H68.9219ZM68.9219 26.2H63.6133V27.8H68.9219V26.2ZM64.4133 27V7.98047H62.8133V27H64.4133ZM63.6133 8.78047H68.6055V7.18047H63.6133V8.78047ZM67.8079 8.0423L67.9836 10.3099L69.5789 10.1862L69.4031 7.91864L67.8079 8.0423ZM69.4801 10.6374C69.8814 9.91707 70.3761 9.38067 70.9575 9.00279L70.0855 7.66128C69.2606 8.19746 68.5951 8.9384 68.0824 9.85869L69.4801 10.6374ZM70.9652 8.99767C71.5244 8.62487 72.1813 8.42891 72.9648 8.42891V6.82891C71.8969 6.82891 70.9248 7.10169 70.0777 7.66639L70.9652 8.99767ZM72.9648 8.42891C73.1881 8.42891 73.4269 8.44832 73.6822 8.48917L73.935 6.90927C73.6043 6.85636 73.2807 6.82891 72.9648 6.82891V8.42891ZM73.7169 8.49395C73.9872 8.52514 74.1626 8.56773 74.266 8.60649L74.8278 7.10836C74.5561 7.00649 74.2393 6.94361 73.9003 6.90449L73.7169 8.49395ZM73.747 7.84643L73.6766 12.9617L75.2765 12.9837L75.3468 7.86842L73.747 7.84643ZM74.5847 12.18C74.3023 12.1415 73.9718 12.1106 73.5964 12.0864L73.4934 13.6831C73.8446 13.7058 74.1352 13.7335 74.3685 13.7653L74.5847 12.18ZM73.6245 12.0887C73.2541 12.0517 72.9161 12.032 72.6133 12.032V13.632C72.8495 13.632 73.1326 13.6475 73.4653 13.6808L73.6245 12.0887ZM72.6133 12.032C70.5569 12.032 68.9533 12.7186 68.1969 14.3394L69.6468 15.016C70.0389 14.1759 70.8962 13.632 72.6133 13.632V12.032ZM68.1219 14.6777V27H69.7219V14.6777H68.1219ZM82.0527 27V27.8H82.8527V27H82.0527ZM76.7441 27H75.9441V27.8H76.7441V27ZM76.7441 7.98047V7.18047H75.9441V7.98047H76.7441ZM81.7363 7.98047L82.5337 7.91564L82.4739 7.18047H81.7363V7.98047ZM81.9121 10.1426L81.1147 10.2074L81.2774 12.2084L82.5355 10.6439L81.9121 10.1426ZM90.4902 8.33203L90.1214 9.04199L90.1288 9.04571L90.4902 8.33203ZM93.3555 27V27.8H94.1555V27H93.3555ZM88.0293 27H87.2293V27.8H88.0293V27ZM87.2734 12.5508L86.7684 13.1713L86.7772 13.1783L87.2734 12.5508ZM82.0527 13.5879L81.3709 13.1695L81.2527 13.362V13.5879H82.0527ZM82.0527 26.2H76.7441V27.8H82.0527V26.2ZM77.5441 27V7.98047H75.9441V27H77.5441ZM76.7441 8.78047H81.7363V7.18047H76.7441V8.78047ZM80.939 8.0453L81.1147 10.2074L82.7095 10.0778L82.5337 7.91564L80.939 8.0453ZM82.5355 10.6439C83.7216 9.16908 85.2967 8.42891 87.3438 8.42891V6.82891C84.844 6.82891 82.7979 7.76452 81.2887 9.64123L82.5355 10.6439ZM87.3438 8.42891C88.4332 8.42891 89.3514 8.64196 90.1214 9.04196L90.859 7.62211C89.8243 7.08461 88.6449 6.82891 87.3438 6.82891V8.42891ZM90.1288 9.04571C90.8471 9.40955 91.4352 10.0255 91.8763 10.959L93.3229 10.2754C92.7562 9.07609 91.9381 8.16858 90.8517 7.61835L90.1288 9.04571ZM91.8763 10.959C92.3098 11.8764 92.5555 13.1856 92.5555 14.9414H94.1555C94.1555 13.0644 93.8972 11.4908 93.3229 10.2754L91.8763 10.959ZM92.5555 14.9414V27H94.1555V14.9414H92.5555ZM93.3555 26.2H88.0293V27.8H93.3555V26.2ZM88.8293 27V14.9062H87.2293V27H88.8293ZM88.8293 14.9062C88.8293 13.6796 88.5766 12.5613 87.7696 11.9232L86.7772 13.1783C86.9781 13.3371 87.2293 13.7891 87.2293 14.9062H88.8293ZM87.7785 11.9303C87.079 11.361 86.1447 11.1355 85.0938 11.1355V12.7355C85.9412 12.7355 86.4601 12.9203 86.7684 13.1712L87.7785 11.9303ZM85.0938 11.1355C84.2785 11.1355 83.5301 11.3061 82.8811 11.6834L83.6853 13.0666C84.0442 12.858 84.5027 12.7355 85.0938 12.7355V11.1355ZM82.8811 11.6834C82.2584 12.0455 81.7538 12.5455 81.3709 13.1695L82.7346 14.0063C82.9845 13.599 83.3002 13.2905 83.6853 13.0666L82.8811 11.6834ZM81.2527 13.5879V27H82.8527V13.5879H81.2527ZM100.809 26.1035L100.404 26.7935L100.406 26.7949L100.809 26.1035ZM97.5391 22.7637L96.8345 23.1426L96.837 23.1472L97.5391 22.7637ZM97.4863 12.3926L96.7685 12.0394L96.7663 12.044L97.4863 12.3926ZM100.58 8.91211L101.007 9.58851L101.011 9.58582L100.58 8.91211ZM111.654 10.1953L111.042 10.7108L111.044 10.7128L111.654 10.1953ZM113.816 19.2305V20.0305H114.616V19.2305H113.816ZM101.811 19.2305V18.4305H100.871L101.021 19.3581L101.811 19.2305ZM103.252 22.0254L102.714 22.6174L102.723 22.6258L103.252 22.0254ZM108.807 22.5703L109.119 23.3068L109.124 23.3045L108.807 22.5703ZM110.828 20.9883L111.43 20.4617L110.796 19.7358L110.199 20.4936L110.828 20.9883ZM113.395 23.9238L114.05 24.382L114.409 23.8687L113.997 23.3973L113.395 23.9238ZM102.936 12.9551L103.561 13.4536L103.565 13.4484L102.936 12.9551ZM101.846 15.6621L101.055 15.5373L100.909 16.4621H101.846V15.6621ZM108.596 15.6621V16.4621H109.396V15.6621H108.596ZM108.596 15.2402L109.396 15.2402L109.396 15.2306L108.596 15.2402ZM107.787 12.8496L107.167 13.3549L107.172 13.3612L107.177 13.3674L107.787 12.8496ZM105.959 26.5516C104.067 26.5516 102.495 26.1594 101.211 25.4121L100.406 26.7949C101.982 27.7117 103.844 28.1516 105.959 28.1516V26.5516ZM101.213 25.4135C99.916 24.6522 98.9309 23.643 98.2412 22.3802L96.837 23.1472C97.6707 24.6734 98.8653 25.8908 100.404 26.7935L101.213 25.4135ZM98.2436 22.3847C97.5604 21.1143 97.2141 19.7048 97.2141 18.1406H95.6141C95.6141 19.9514 96.0177 21.6239 96.8345 23.1426L98.2436 22.3847ZM97.2141 18.1406V17.4551H95.6141V18.1406H97.2141ZM97.2141 17.4551C97.2141 15.6584 97.5518 14.0932 98.2064 12.7412L96.7663 12.044C95.9911 13.6451 95.6141 15.4549 95.6141 17.4551H97.2141ZM98.2041 12.7458C98.8683 11.3959 99.8015 10.35 101.007 9.5885L100.153 8.23572C98.6868 9.16167 97.5574 10.4361 96.7685 12.0394L98.2041 12.7458ZM101.011 9.58582C102.198 8.82582 103.637 8.42891 105.361 8.42891V6.82891C103.383 6.82891 101.634 7.28746 100.149 8.2384L101.011 9.58582ZM105.361 8.42891C107.939 8.42891 109.788 9.22127 111.042 10.7108L112.266 9.67987C110.638 7.74748 108.292 6.82891 105.361 6.82891V8.42891ZM111.044 10.7128C112.333 12.2322 113.016 14.2938 113.016 16.9805H114.616C114.616 14.0187 113.858 11.5568 112.264 9.6778L111.044 10.7128ZM113.016 16.9805V19.2305H114.616V16.9805H113.016ZM113.816 18.4305H101.811V20.0305H113.816V18.4305ZM101.021 19.3581C101.233 20.6736 101.79 21.7773 102.714 22.6173L103.79 21.4334C103.167 20.8672 102.763 20.1077 102.6 19.1028L101.021 19.3581ZM102.723 22.6258C103.681 23.4691 104.895 23.8625 106.293 23.8625V22.2625C105.207 22.2625 104.393 21.9645 103.781 21.425L102.723 22.6258ZM106.293 23.8625C107.295 23.8625 108.24 23.6799 109.119 23.3068L108.494 21.8338C107.827 22.117 107.096 22.2625 106.293 22.2625V23.8625ZM109.124 23.3045C110.039 22.9085 110.818 22.2954 111.457 21.483L110.199 20.4936C109.714 21.1108 109.144 21.5524 108.489 21.8361L109.124 23.3045ZM110.226 21.5148L112.792 24.4504L113.997 23.3973L111.43 20.4617L110.226 21.5148ZM112.739 23.4657C112.23 24.1941 111.409 24.907 110.221 25.5843L111.013 26.9743C112.333 26.2219 113.364 25.3645 114.05 24.382L112.739 23.4657ZM110.221 25.5843C109.117 26.2135 107.71 26.5516 105.959 26.5516V28.1516C107.911 28.1516 109.609 27.7748 111.013 26.9743L110.221 25.5843ZM105.326 11.1004C104.084 11.1004 103.035 11.5312 102.306 12.4617L103.565 13.4484C103.938 12.9727 104.483 12.7004 105.326 12.7004V11.1004ZM102.31 12.4566C101.652 13.2821 101.247 14.3242 101.055 15.5373L102.636 15.7869C102.796 14.7734 103.117 14.0109 103.561 13.4535L102.31 12.4566ZM101.846 16.4621H108.596V14.8621H101.846V16.4621ZM109.396 15.6621V15.2402H107.796V15.6621H109.396ZM109.396 15.2306C109.382 14.1093 109.067 13.1213 108.397 12.3318L107.177 13.3674C107.562 13.8201 107.786 14.4259 107.796 15.2499L109.396 15.2306ZM108.407 12.3443C107.688 11.4615 106.596 11.1004 105.326 11.1004V12.7004C106.307 12.7004 106.855 12.9721 107.167 13.3549L108.407 12.3443ZM127.193 7.98047V7.18047H126.596L126.426 7.7534L127.193 7.98047ZM132.871 7.98047L133.627 8.24291L133.996 7.18047H132.871V7.98047ZM125.277 29.8477L126.032 30.1132L126.033 30.1101L125.277 29.8477ZM124.275 31.9219L123.588 31.5134L123.584 31.5197L123.58 31.5261L124.275 31.9219ZM122.395 33.873L121.955 33.2045L121.951 33.2074L122.395 33.873ZM117.947 34.5938L118.098 33.8081L118.084 33.8053L118.069 33.8031L117.947 34.5938ZM116.84 34.3477H116.04V34.9601L116.631 35.1199L116.84 34.3477ZM116.84 30.3398L116.878 29.5407L116.04 29.5008V30.3398H116.84ZM119.775 29.8828L119.339 29.2121L119.33 29.2184L119.32 29.2251L119.775 29.8828ZM120.83 28.4414L120.083 28.1542L120.08 28.1632L120.077 28.1723L120.83 28.4414ZM121.357 27.0703L122.104 27.3575L122.209 27.084L122.113 26.8073L121.357 27.0703ZM114.713 7.98047V7.18047H113.587L113.957 8.24345L114.713 7.98047ZM120.426 7.98047L121.193 7.75448L121.024 7.18047H120.426V7.98047ZM123.801 19.4414L123.033 19.6674L123.799 22.2666L124.568 19.6685L123.801 19.4414ZM127.193 8.78047H132.871V7.18047H127.193V8.78047ZM132.115 7.71803L124.522 29.5852L126.033 30.1101L133.627 8.24291L132.115 7.71803ZM124.523 29.5821C124.322 30.153 124.013 30.7961 123.588 31.5134L124.963 32.3303C125.428 31.5477 125.788 30.8079 126.032 30.1132L124.523 29.5821ZM123.58 31.5261C123.216 32.1654 122.683 32.7264 121.955 33.2045L122.834 34.5416C123.747 33.9415 124.467 33.2018 124.971 32.3176L123.58 31.5261ZM121.951 33.2074C121.316 33.6304 120.405 33.8816 119.143 33.8816V35.4816C120.599 35.4816 121.856 35.1939 122.838 34.5387L121.951 33.2074ZM119.143 33.8816C118.675 33.8816 118.333 33.8533 118.098 33.8081L117.796 35.3794C118.171 35.4514 118.625 35.4816 119.143 35.4816V33.8816ZM118.069 33.8031C117.803 33.7622 117.465 33.688 117.049 33.5754L116.631 35.1199C117.082 35.2417 117.482 35.3315 117.826 35.3844L118.069 33.8031ZM117.64 34.3477V30.3398H116.04V34.3477H117.64ZM116.802 31.1389C117.062 31.1513 117.332 31.1574 117.613 31.1574V29.5574C117.355 29.5574 117.11 29.5518 116.878 29.5407L116.802 31.1389ZM117.613 31.1574C118.65 31.1574 119.571 30.997 120.231 30.5406L119.32 29.2251C119.065 29.4014 118.545 29.5574 117.613 29.5574V31.1574ZM120.211 30.5536C120.86 30.1319 121.305 29.4904 121.583 28.7105L120.077 28.1723C119.886 28.7049 119.628 29.0244 119.339 29.2121L120.211 30.5536ZM121.577 28.7286L122.104 27.3575L120.611 26.7831L120.083 28.1542L121.577 28.7286ZM122.113 26.8073L115.468 7.71749L113.957 8.24345L120.602 27.3333L122.113 26.8073ZM114.713 8.78047H120.426V7.18047H114.713V8.78047ZM119.658 8.20646L123.033 19.6674L124.568 19.2154L121.193 7.75448L119.658 8.20646ZM124.568 19.6685L127.96 8.20754L126.426 7.7534L123.034 19.2143L124.568 19.6685ZM155.125 27V27.8H155.925V27H155.125ZM149.605 27H148.805V27.8H149.605V27ZM149.605 5.87109H150.405V5.07109H149.605V5.87109ZM141.941 5.87109H141.141V6.67109H141.941V5.87109ZM141.941 1.40625V0.60625H141.141V1.40625H141.941ZM162.895 1.40625H163.695V0.60625H162.895V1.40625ZM162.895 5.87109V6.67109H163.695V5.87109H162.895ZM155.125 5.87109V5.07109H154.325V5.87109H155.125ZM155.125 26.2H149.605V27.8H155.125V26.2ZM150.405 27V5.87109H148.805V27H150.405ZM149.605 5.07109H141.941V6.67109H149.605V5.07109ZM142.741 5.87109V1.40625H141.141V5.87109H142.741ZM141.941 2.20625H162.895V0.60625H141.941V2.20625ZM162.095 1.40625V5.87109H163.695V1.40625H162.095ZM162.895 5.07109H155.125V6.67109H162.895V5.07109ZM154.325 5.87109V27H155.925V5.87109H154.325ZM163.65 12.3574L164.371 12.7059L164.372 12.7036L163.65 12.3574ZM176.57 8.89453L176.146 9.5726L176.148 9.57424L176.57 8.89453ZM179.646 12.3574L178.923 12.6989L178.926 12.7059L179.646 12.3574ZM179.646 22.6406L178.925 22.2944L178.924 22.2969L179.646 22.6406ZM166.727 26.0859L166.302 26.764L166.305 26.7656L166.727 26.0859ZM163.65 22.6406L162.929 22.9868L162.93 22.9891L163.65 22.6406ZM174.549 21.5156L173.843 21.1392L173.841 21.142L174.549 21.5156ZM175.023 14.625L174.254 14.8448L174.257 14.8549L175.023 14.625ZM173.846 12.6562L173.299 13.2407L173.306 13.2468L173.313 13.2528L173.846 12.6562ZM169.451 12.6562L169.991 13.2471L169.997 13.2407L169.451 12.6562ZM168.273 14.625L167.507 14.3951L167.504 14.4052L168.273 14.625ZM163.396 17.3145C163.396 15.5658 163.727 14.0354 164.371 12.7059L162.93 12.009C162.167 13.5857 161.796 15.36 161.796 17.3145H163.396ZM164.372 12.7036C165.011 11.3721 165.935 10.3342 167.151 9.5726L166.302 8.21646C164.823 9.14238 163.696 10.4131 162.929 12.0112L164.372 12.7036ZM167.151 9.5726C168.347 8.82375 169.828 8.42891 171.631 8.42891V6.82891C169.59 6.82891 167.801 7.27781 166.302 8.21646L167.151 9.5726ZM171.631 8.42891C173.46 8.42891 174.951 8.82467 176.146 9.5726L176.995 8.21646C175.494 7.2769 173.693 6.82891 171.631 6.82891V8.42891ZM176.148 9.57424C177.375 10.3356 178.297 11.3717 178.923 12.6989L180.37 12.0159C179.614 10.4135 178.484 9.14096 176.992 8.21482L176.148 9.57424ZM178.926 12.7059C179.57 14.0354 179.901 15.5658 179.901 17.3145H181.501C181.501 15.36 181.13 13.5857 180.367 12.009L178.926 12.7059ZM179.901 17.3145V17.6836H181.501V17.3145H179.901ZM179.901 17.6836C179.901 19.4195 179.57 20.9511 178.925 22.2944L180.368 22.9868C181.129 21.4004 181.501 19.6274 181.501 17.6836H179.901ZM178.924 22.2969C178.297 23.6143 177.38 24.646 176.163 25.4079L177.012 26.764C178.491 25.8384 179.613 24.5732 180.369 22.9843L178.924 22.2969ZM176.163 25.4079C174.968 26.1563 173.482 26.5516 171.666 26.5516V28.1516C173.717 28.1516 175.512 27.7031 177.012 26.764L176.163 25.4079ZM171.666 26.5516C169.85 26.5516 168.357 26.1564 167.148 25.4062L166.305 26.7656C167.815 27.703 169.615 28.1516 171.666 28.1516V26.5516ZM167.151 25.4079C165.933 24.6453 165.009 23.612 164.371 22.2922L162.93 22.9891C163.698 24.5755 164.825 25.8391 166.302 26.764L167.151 25.4079ZM164.372 22.2944C163.727 20.9511 163.396 19.4195 163.396 17.6836H161.796C161.796 19.6274 162.168 21.4004 162.929 22.9868L164.372 22.2944ZM163.396 17.6836V17.3145H161.796V17.6836H163.396ZM167.122 17.6836C167.122 18.7419 167.246 19.7254 167.504 20.628L169.043 20.1884C168.832 19.4504 168.722 18.6175 168.722 17.6836H167.122ZM167.504 20.628C167.774 21.5714 168.24 22.3642 168.925 22.9622L169.977 21.7565C169.561 21.3936 169.242 20.8856 169.043 20.1884L167.504 20.628ZM168.925 22.9622C169.657 23.6009 170.6 23.8801 171.666 23.8801V22.2801C170.88 22.2801 170.347 22.0788 169.977 21.7565L168.925 22.9622ZM171.666 23.8801C173.275 23.8801 174.542 23.2424 175.256 21.8892L173.841 21.142C173.454 21.8748 172.799 22.2801 171.666 22.2801V23.8801ZM175.255 21.8921C175.893 20.6957 176.193 19.2821 176.193 17.6836H174.593C174.593 19.0851 174.33 20.2262 173.843 21.1392L175.255 21.8921ZM176.193 17.6836V17.3145H174.593V17.6836H176.193ZM176.193 17.3145C176.193 16.2743 176.061 15.2993 175.79 14.3951L174.257 14.8549C174.478 15.5913 174.593 16.4093 174.593 17.3145H176.193ZM175.793 14.4052C175.523 13.4625 175.059 12.6675 174.379 12.0597L173.313 13.2528C173.734 13.6294 174.055 14.1468 174.254 14.8448L175.793 14.4052ZM174.392 12.0718C173.668 11.3948 172.714 11.1004 171.631 11.1004V12.7004C172.423 12.7004 172.946 12.9099 173.299 13.2407L174.392 12.0718ZM171.631 11.1004C170.565 11.1004 169.625 11.3982 168.905 12.0718L169.997 13.2407C170.355 12.9065 170.869 12.7004 171.631 12.7004V11.1004ZM168.912 12.0655C168.249 12.671 167.788 13.4605 167.507 14.3951L169.04 14.8549C169.251 14.1489 169.576 13.6259 169.991 13.247L168.912 12.0655ZM167.504 14.4052C167.247 15.3062 167.122 16.2777 167.122 17.3145H168.722C168.722 16.4059 168.831 15.5844 169.043 14.8448L167.504 14.4052ZM167.122 17.3145V17.6836H168.722V17.3145H167.122ZM200.23 1.40625L200.986 1.14369L200.799 0.60625H200.23V1.40625ZM206.576 19.6699L205.82 19.9325L206.577 22.1105L207.332 19.9318L206.576 19.6699ZM212.904 1.40625V0.60625H212.335L212.148 1.14434L212.904 1.40625ZM220.129 1.40625H220.929V0.60625H220.129V1.40625ZM220.129 27V27.8H220.929V27H220.129ZM214.592 27H213.792V27.8H214.592V27ZM214.592 20.373L213.793 20.3372L213.792 20.3551V20.373H214.592ZM215.137 8.22656L215.936 8.26242L214.383 7.95776L215.137 8.22656ZM208.439 27V27.8H209.003L209.193 27.2688L208.439 27ZM204.678 27L203.924 27.2682L204.113 27.8H204.678V27ZM197.998 8.22656L198.752 7.95839L197.199 8.26242L197.998 8.22656ZM198.543 20.373H199.343V20.3551L199.342 20.3372L198.543 20.373ZM198.543 27V27.8H199.343V27H198.543ZM193.006 27H192.206V27.8H193.006V27ZM193.006 1.40625V0.60625H192.206V1.40625H193.006ZM199.475 1.66881L205.82 19.9325L207.332 19.4074L200.986 1.14369L199.475 1.66881ZM207.332 19.9318L213.66 1.66816L212.148 1.14434L205.82 19.408L207.332 19.9318ZM212.904 2.20625H220.129V0.60625H212.904V2.20625ZM219.329 1.40625V27H220.929V1.40625H219.329ZM220.129 26.2H214.592V27.8H220.129V26.2ZM215.392 27V20.373H213.792V27H215.392ZM215.391 20.4089L215.936 8.26242L214.338 8.19071L213.793 20.3372L215.391 20.4089ZM214.383 7.95776L207.686 26.7312L209.193 27.2688L215.89 8.49536L214.383 7.95776ZM208.439 26.2H204.678V27.8H208.439V26.2ZM205.431 26.7318L198.752 7.95839L197.244 8.49474L203.924 27.2682L205.431 26.7318ZM197.199 8.26242L197.744 20.4089L199.342 20.3372L198.797 8.19071L197.199 8.26242ZM197.743 20.373V27H199.343V20.373H197.743ZM198.543 26.2H193.006V27.8H198.543V26.2ZM193.806 27V1.40625H192.206V27H193.806ZM193.006 2.20625H200.23V0.60625H193.006V2.20625ZM229.252 13.7285V14.5285H230.052V13.7285H229.252ZM223.943 13.7285H223.143V14.5285H223.943V13.7285ZM224.945 10.6699L225.591 11.1419L225.594 11.138L224.945 10.6699ZM236.037 8.38477L235.718 9.11857L235.725 9.12123L236.037 8.38477ZM239.975 24.9785L239.189 25.1327L239.192 25.1461L239.975 24.9785ZM240.555 26.7012H241.355V26.5123L241.27 26.3434L240.555 26.7012ZM240.555 27V27.8H241.355V27H240.555ZM235.211 27L234.488 27.3425L234.705 27.8H235.211V27ZM234.701 25.3301L235.487 25.1785L235.177 23.5718L234.099 24.8033L234.701 25.3301ZM232.803 26.7715L233.165 27.4848L233.169 27.4827L232.803 26.7715ZM226.686 26.6309L226.324 27.3447L226.335 27.3498L226.686 26.6309ZM224.365 24.6094L223.698 25.0511L223.701 25.0552L224.365 24.6094ZM225.719 17.0156L226.194 17.6593L226.197 17.6568L225.719 17.0156ZM234.455 15.3633V16.1633H235.255V15.3633H234.455ZM233.225 22.7988L233.649 23.4772L233.652 23.4749L233.225 22.7988ZM234.455 21.6035L235.151 21.9984L235.255 21.8147V21.6035H234.455ZM234.455 18.4219H235.255V17.6219H234.455V18.4219ZM229.674 19.2656L230.228 19.843L230.234 19.8371L229.674 19.2656ZM235.255 14.3262C235.255 13.3405 235.01 12.4601 234.436 11.7736L233.209 12.8007C233.478 13.1219 233.655 13.601 233.655 14.3262H235.255ZM234.436 11.7736C233.807 11.0228 232.862 10.7312 231.801 10.7312V12.3313C232.591 12.3313 232.994 12.5436 233.209 12.8007L234.436 11.7736ZM231.801 10.7312C230.871 10.7312 230.032 10.954 229.395 11.5073L230.444 12.7154C230.698 12.4952 231.113 12.3313 231.801 12.3313V10.7312ZM229.395 11.5073C228.744 12.0726 228.452 12.8494 228.452 13.7285H230.052C230.052 13.2248 230.205 12.9234 230.444 12.7154L229.395 11.5073ZM229.252 12.9285H223.943V14.5285H229.252V12.9285ZM224.743 13.7285C224.743 12.7744 225.023 11.9199 225.591 11.1419L224.299 10.1979C223.532 11.248 223.143 12.4327 223.143 13.7285H224.743ZM225.594 11.138C226.167 10.3437 226.991 9.68725 228.105 9.18409L227.446 7.72607C226.122 8.32447 225.059 9.14455 224.297 10.2018L225.594 11.138ZM228.105 9.18409C229.199 8.68976 230.517 8.42891 232.082 8.42891V6.82891C230.342 6.82891 228.79 7.11884 227.446 7.72607L228.105 9.18409ZM232.082 8.42891C233.467 8.42891 234.674 8.66501 235.718 9.11854L236.356 7.65099C235.08 7.09671 233.65 6.82891 232.082 6.82891V8.42891ZM235.725 9.12123C236.749 9.55595 237.538 10.2025 238.115 11.0627L239.444 10.1716C238.685 9.03969 237.645 8.19795 236.35 7.6483L235.725 9.12123ZM238.115 11.0627C238.675 11.8974 238.981 12.9801 238.981 14.3613H240.581C240.581 12.7425 240.22 11.3291 239.444 10.1716L238.115 11.0627ZM238.981 14.3613V22.3066H240.581V14.3613H238.981ZM238.981 22.3066C238.981 23.4535 239.046 24.403 239.19 25.1327L240.76 24.8243C240.645 24.2416 240.581 23.4098 240.581 22.3066H238.981ZM239.192 25.1461C239.344 25.8545 239.557 26.495 239.839 27.0589L241.27 26.3434C241.06 25.923 240.886 25.4151 240.757 24.8109L239.192 25.1461ZM239.755 26.7012V27H241.355V26.7012H239.755ZM240.555 26.2H235.211V27.8H240.555V26.2ZM235.934 26.6575C235.76 26.291 235.607 25.8035 235.487 25.1785L233.916 25.4817C234.053 26.1926 234.24 26.8183 234.488 27.3425L235.934 26.6575ZM234.099 24.8033C233.683 25.2787 233.135 25.7005 232.436 26.0603L233.169 27.4827C234.018 27.0456 234.735 26.5065 235.303 25.8569L234.099 24.8033ZM232.441 26.0582C231.821 26.3728 231.01 26.5516 229.973 26.5516V28.1516C231.185 28.1516 232.261 27.9436 233.165 27.4848L232.441 26.0582ZM229.973 26.5516C228.875 26.5516 227.901 26.3338 227.036 25.9119L226.335 27.3498C227.439 27.8889 228.657 28.1516 229.973 28.1516V26.5516ZM227.047 25.917C226.189 25.483 225.523 24.8985 225.029 24.1635L223.701 25.0552C224.356 26.0312 225.237 26.7943 226.324 27.3447L227.047 25.917ZM225.032 24.1677C224.551 23.4408 224.304 22.6065 224.304 21.6387H222.704C222.704 22.8974 223.031 24.0435 223.698 25.0511L225.032 24.1677ZM224.304 21.6387C224.304 19.8752 224.941 18.5839 226.194 17.6593L225.244 16.372C223.543 17.627 222.704 19.4178 222.704 21.6387H224.304ZM226.197 17.6568C227.476 16.703 229.471 16.1633 232.311 16.1633V14.5633C229.314 14.5633 226.915 15.1252 225.24 16.3744L226.197 17.6568ZM232.311 16.1633H234.455V14.5633H232.311V16.1633ZM235.255 15.3633V14.3262H233.655V15.3633H235.255ZM231.15 24.1262C232.085 24.1262 232.932 23.9252 233.649 23.4772L232.801 22.1204C232.392 22.3756 231.856 22.5262 231.15 22.5262V24.1262ZM233.652 23.4749C234.299 23.0656 234.821 22.5802 235.151 21.9984L233.759 21.2086C233.597 21.494 233.298 21.8055 232.797 22.1228L233.652 23.4749ZM235.255 21.6035V18.4219H233.655V21.6035H235.255ZM234.455 17.6219H232.469V19.2219H234.455V17.6219ZM232.469 17.6219C231.091 17.6219 229.906 17.918 229.114 18.6941L230.234 19.8371C230.59 19.4883 231.268 19.2219 232.469 19.2219V17.6219ZM229.12 18.6883C228.391 19.3877 228.012 20.2631 228.012 21.2695H229.613C229.613 20.7056 229.808 20.2452 230.228 19.843L229.12 18.6883ZM228.012 21.2695C228.012 22.0802 228.309 22.7901 228.905 23.3358L229.986 22.1564C229.737 21.9286 229.613 21.6542 229.613 21.2695H228.012ZM228.905 23.3358C229.508 23.8892 230.287 24.1262 231.15 24.1262V22.5262C230.584 22.5262 230.226 22.3764 229.986 22.1564L228.905 23.3358ZM248.887 27V27.8H249.687V27H248.887ZM243.578 27H242.778V27.8H243.578V27ZM243.578 7.98047V7.18047H242.778V7.98047H243.578ZM248.57 7.98047L249.368 7.91864L249.311 7.18047H248.57V7.98047ZM248.746 10.248L247.948 10.3099L248.154 12.9553L249.445 10.6374L248.746 10.248ZM250.486 8.33203L250.922 9.00283L250.93 8.99767L250.486 8.33203ZM253.773 7.69922L253.647 8.48917L253.664 8.49194L253.682 8.49395L253.773 7.69922ZM254.512 7.85742L255.312 7.86842L255.319 7.30589L254.793 7.10836L254.512 7.85742ZM254.441 12.9727L254.333 13.7653L255.229 13.8874L255.241 12.9837L254.441 12.9727ZM253.51 12.8848L253.43 13.6808L253.444 13.6822L253.458 13.6831L253.51 12.8848ZM248.887 14.6777L248.162 14.3394L248.087 14.5003V14.6777H248.887ZM248.887 26.2H243.578V27.8H248.887V26.2ZM244.378 27V7.98047H242.778V27H244.378ZM243.578 8.78047H248.57V7.18047H243.578V8.78047ZM247.773 8.0423L247.948 10.3099L249.544 10.1862L249.368 7.91864L247.773 8.0423ZM249.445 10.6374C249.846 9.91707 250.341 9.38067 250.922 9.00279L250.05 7.66128C249.225 8.19746 248.56 8.9384 248.047 9.85869L249.445 10.6374ZM250.93 8.99767C251.489 8.62487 252.146 8.42891 252.93 8.42891V6.82891C251.862 6.82891 250.89 7.10169 250.043 7.66639L250.93 8.99767ZM252.93 8.42891C253.153 8.42891 253.392 8.44832 253.647 8.48917L253.9 6.90927C253.569 6.85636 253.246 6.82891 252.93 6.82891V8.42891ZM253.682 8.49395C253.952 8.52514 254.127 8.56773 254.231 8.60649L254.793 7.10836C254.521 7.00649 254.204 6.94361 253.865 6.90449L253.682 8.49395ZM253.712 7.84643L253.641 12.9617L255.241 12.9837L255.312 7.86842L253.712 7.84643ZM254.549 12.18C254.267 12.1415 253.937 12.1106 253.561 12.0864L253.458 13.6831C253.809 13.7058 254.1 13.7335 254.333 13.7653L254.549 12.18ZM253.589 12.0887C253.219 12.0517 252.881 12.032 252.578 12.032V13.632C252.814 13.632 253.097 13.6475 253.43 13.6808L253.589 12.0887ZM252.578 12.032C250.522 12.032 248.918 12.7186 248.162 14.3394L249.612 15.016C250.004 14.1759 250.861 13.632 252.578 13.632V12.032ZM248.087 14.6777V27H249.687V14.6777H248.087ZM266.271 20.4082L265.806 21.0592L265.815 21.0654L265.824 21.0715L266.271 20.4082ZM263.195 19.3887L263.36 18.6058L263.359 18.6056L263.195 19.3887ZM259.732 18.2637L259.381 18.9826L259.391 18.9873L259.732 18.2637ZM257.324 16.3828L256.69 16.8706L256.695 16.8766L257.324 16.3828ZM259.979 8.45508L259.633 7.73374L259.63 7.73514L259.979 8.45508ZM269.98 9.36914L269.476 9.99037L269.482 9.99483L269.98 9.36914ZM272.143 13.7812V14.5813H272.943V13.7812H272.143ZM266.834 13.7812H266.034V14.5813H266.834V13.7812ZM266.166 12.041L265.586 12.5916L265.593 12.5993L265.6 12.6067L266.166 12.041ZM262.281 14.6426L261.834 15.3058L261.843 15.3118L261.852 15.3175L262.281 14.6426ZM264.971 15.4863L265.128 14.7018L265.115 14.6995L264.971 15.4863ZM268.627 16.5586L268.324 17.2992L268.331 17.3019L268.627 16.5586ZM271.229 18.4043L270.606 18.9074L270.61 18.9119L271.229 18.4043ZM271.193 24.5039L270.556 24.0198L270.552 24.0253L271.193 24.5039ZM268.381 26.5957L268.689 27.334L268.693 27.3325L268.381 26.5957ZM259.574 26.3848L259.945 25.6761L259.574 26.3848ZM256.779 23.9414L256.104 24.3704L256.106 24.374L256.779 23.9414ZM255.83 20.9004V20.1004H255.03V20.9004H255.83ZM260.857 20.9004L261.656 20.8609L261.619 20.1004H260.857V20.9004ZM261.895 22.9746L261.448 23.6384L261.455 23.643L261.462 23.6476L261.895 22.9746ZM266.307 23.0801L265.834 22.4344L265.827 22.4401L266.307 23.0801ZM267.827 21.6914C267.827 20.8593 267.398 20.2029 266.719 19.7449L265.824 21.0715C266.153 21.2932 266.227 21.4922 266.227 21.6914H267.827ZM266.736 19.7572C266.393 19.5119 265.924 19.3089 265.385 19.1303C264.834 18.9476 264.156 18.7735 263.36 18.6058L263.031 20.1715C263.793 20.332 264.407 20.4918 264.882 20.649C265.368 20.8102 265.658 20.953 265.806 21.0592L266.736 19.7572ZM263.359 18.6056C262.121 18.3468 261.028 17.9898 260.073 17.54L259.391 18.9873C260.476 19.4985 261.691 19.8915 263.032 20.1717L263.359 18.6056ZM260.083 17.5448C259.167 17.0973 258.466 16.5417 257.954 15.889L256.695 16.8766C257.378 17.7474 258.282 18.4457 259.381 18.9825L260.083 17.5448ZM257.958 15.895C257.495 15.2932 257.245 14.54 257.245 13.5879H255.645C255.645 14.8389 255.981 15.949 256.69 16.8706L257.958 15.895ZM257.245 13.5879C257.245 12.6846 257.5 11.8556 258.022 11.0825L256.696 10.187C256 11.2187 255.645 12.3584 255.645 13.5879H257.245ZM258.022 11.0825C258.541 10.3146 259.297 9.67428 260.327 9.17502L259.63 7.73514C258.387 8.33744 257.397 9.15029 256.696 10.187L258.022 11.0825ZM260.324 9.17641C261.341 8.68875 262.588 8.42891 264.092 8.42891V6.82891C262.408 6.82891 260.913 7.11985 259.633 7.73374L260.324 9.17641ZM264.092 8.42891C266.469 8.42891 268.233 8.98112 269.476 9.99034L270.485 8.74794C268.869 7.43685 266.706 6.82891 264.092 6.82891V8.42891ZM269.482 9.99483C270.739 10.9964 271.343 12.2397 271.343 13.7812H272.943C272.943 11.7369 272.105 10.0388 270.479 8.74345L269.482 9.99483ZM272.143 12.9812H266.834V14.5813H272.143V12.9812ZM267.634 13.7812C267.634 12.8854 267.348 12.0914 266.732 11.4753L265.6 12.6067C265.875 12.8813 266.034 13.2474 266.034 13.7812H267.634ZM266.746 11.4904C266.098 10.8069 265.141 10.5555 264.074 10.5555V12.1555C264.93 12.1555 265.367 12.361 265.586 12.5916L266.746 11.4904ZM264.074 10.5555C263.165 10.5555 262.345 10.7735 261.703 11.2995L262.718 12.5364C262.991 12.3124 263.413 12.1555 264.074 12.1555V10.5555ZM261.703 11.2995C261.072 11.8176 260.725 12.5085 260.725 13.3242H262.325C262.325 13.015 262.436 12.7684 262.718 12.5364L261.703 11.2995ZM260.725 13.3242C260.725 14.1666 261.142 14.8394 261.834 15.3058L262.729 13.9793C262.412 13.766 262.325 13.56 262.325 13.3242H260.725ZM261.852 15.3175C262.507 15.7345 263.536 16.0364 264.826 16.2732L265.115 14.6995C263.851 14.4675 263.087 14.2069 262.711 13.9676L261.852 15.3175ZM264.814 16.2708C266.12 16.532 267.289 16.876 268.324 17.2992L268.93 15.818C267.786 15.3506 266.517 14.9798 265.128 14.7019L264.814 16.2708ZM268.331 17.3019C269.312 17.6922 270.06 18.2319 270.607 18.9074L271.851 17.9012C271.108 16.983 270.121 16.2922 268.923 15.8153L268.331 17.3019ZM270.61 18.9119C271.11 19.5203 271.395 20.357 271.395 21.498H272.995C272.995 20.0844 272.636 18.8586 271.847 17.8967L270.61 18.9119ZM271.395 21.498C271.395 22.4518 271.116 23.283 270.556 24.0198L271.83 24.988C272.606 23.967 272.995 22.7943 272.995 21.498H271.395ZM270.552 24.0253C269.997 24.769 269.184 25.3872 268.069 25.8589L268.693 27.3325C270.015 26.773 271.077 25.9966 271.834 24.9825L270.552 24.0253ZM268.073 25.8575C266.985 26.3117 265.67 26.5516 264.109 26.5516V28.1516C265.83 28.1516 267.363 27.8876 268.689 27.334L268.073 25.8575ZM264.109 26.5516C262.409 26.5516 261.033 26.2457 259.945 25.6761L259.203 27.0934C260.576 27.8129 262.224 28.1516 264.109 28.1516V26.5516ZM259.945 25.6761C258.815 25.0838 257.997 24.3565 257.452 23.5088L256.106 24.374C256.827 25.4951 257.873 26.3966 259.203 27.0934L259.945 25.6761ZM257.455 23.5124C256.891 22.6256 256.63 21.7587 256.63 20.9004H255.03C255.03 22.1046 255.402 23.265 256.104 24.3704L257.455 23.5124ZM255.83 21.7004H260.857V20.1004H255.83V21.7004ZM260.058 20.9398C260.115 22.0782 260.547 23.0321 261.448 23.6384L262.341 22.3108C261.953 22.0499 261.694 21.6211 261.656 20.8609L260.058 20.9398ZM261.462 23.6476C262.266 24.1647 263.201 24.4074 264.232 24.4074V22.8074C263.459 22.8074 262.835 22.6282 262.327 22.3017L261.462 23.6476ZM264.232 24.4074C265.229 24.4074 266.121 24.2192 266.787 23.7201L265.827 22.4401C265.555 22.6441 265.064 22.8074 264.232 22.8074V24.4074ZM266.779 23.7257C267.456 23.23 267.827 22.5316 267.827 21.6914H266.227C266.227 21.9996 266.118 22.227 265.834 22.4345L266.779 23.7257Z" fill="black"/>
</svg>
